<?xml version="1.0" standalone="no"?>
<!DOCTYPE svg PUBLIC "-//W3C//DTD SVG 20010904//EN"
 "http://www.w3.org/TR/2001/REC-SVG-20010904/DTD/svg10.dtd">
<svg version="1.0" xmlns="http://www.w3.org/2000/svg"
 width="300.000000pt" height="300.000000pt" viewBox="0 0 300.000000 300.000000"
 preserveAspectRatio="xMidYMid meet">
<metadata>
Created by potrace 1.14, written by Peter Selinger 2001-2017
</metadata>
<g transform="translate(0.000000,300.000000) scale(0.100000,-0.100000)"
fill="#000000" stroke="none">
<path d="M0 1500 l0 -1500 1500 0 1500 0 0 1500 0 1500 -1500 0 -1500 0 0
-1500z m2950 0 l0 -1450 -1450 0 -1450 0 0 1450 0 1450 1450 0 1450 0 0 -1450z"/>
<path d="M190 2635 c0 -22 4 -25 40 -25 l40 0 0 -125 0 -125 30 0 30 0 0 125
0 125 40 0 c36 0 40 3 40 25 l0 25 -110 0 -110 0 0 -25z"/>
<path d="M430 2651 c0 -5 22 -56 49 -113 53 -112 54 -144 6 -132 -22 5 -25 3
-25 -19 0 -14 7 -28 16 -31 60 -23 100 18 154 159 44 112 60 143 60 112 0 -13
9 -17 40 -17 l40 0 0 -125 0 -125 30 0 30 0 0 124 0 125 43 3 c35 2 43 7 45
26 3 22 3 22 -146 22 l-149 0 -29 -75 c-16 -41 -31 -75 -34 -75 -3 1 -20 34
-39 75 -31 68 -37 75 -63 75 -15 0 -28 -4 -28 -9z"/>
<path d="M594 2080 c-87 -35 -112 -212 -39 -277 73 -65 209 -27 235 65 34 125
-23 223 -129 221 -25 0 -55 -4 -67 -9z m111 -65 c21 -20 25 -34 25 -83 0 -77
-21 -106 -75 -106 -54 0 -75 29 -75 106 0 49 4 63 25 83 13 14 36 25 50 25 14
0 37 -11 50 -25z"/>
<path d="M1900 2072 c-52 -26 -72 -72 -68 -159 3 -59 7 -76 27 -97 46 -49 138
-58 196 -20 52 34 73 158 39 229 -28 61 -122 83 -194 47z m119 -51 c38 -38 40
-142 3 -173 -69 -61 -143 0 -129 106 10 72 82 111 126 67z"/>
<path d="M266 2053 c-3 -16 -10 -55 -15 -89 -11 -69 -35 -134 -50 -134 -7 0
-11 -26 -11 -66 0 -62 1 -65 23 -62 18 2 23 10 25 41 l3 37 100 0 99 0 0 -40
c0 -36 3 -40 25 -40 24 0 25 2 25 64 0 55 -3 64 -20 69 -19 5 -20 14 -20 126
l0 121 -89 0 -89 0 -6 -27z m124 -118 l0 -105 -56 0 c-49 0 -55 2 -49 18 4 9
13 51 22 92 20 102 19 100 53 100 l30 0 0 -105z"/>
<path d="M881 1998 c-17 -118 -29 -156 -51 -168 -23 -13 -28 -60 -5 -60 57 0
89 53 109 180 12 74 12 75 44 78 l32 3 0 -125 0 -126 30 0 30 0 0 150 0 150
-89 0 -89 0 -11 -82z"/>
<path d="M1130 2071 c0 -20 32 -96 47 -113 15 -17 15 -19 -1 -37 -17 -18 -56
-111 -56 -132 0 -6 14 -9 32 -7 29 3 33 8 50 60 19 55 43 78 68 63 5 -3 10
-33 10 -66 0 -56 1 -59 25 -59 24 0 25 3 25 59 0 33 5 63 10 66 25 15 49 -8
68 -63 17 -52 21 -57 50 -60 18 -2 32 1 32 7 0 21 -39 114 -56 132 -16 18 -16
20 -1 37 15 17 47 93 47 113 0 5 -13 9 -29 9 -26 0 -31 -5 -46 -50 -16 -49
-45 -77 -65 -65 -6 3 -10 31 -10 61 0 51 -1 54 -25 54 -24 0 -25 -3 -25 -54 0
-30 -4 -58 -10 -61 -20 -12 -49 16 -65 65 -15 45 -20 50 -46 50 -16 0 -29 -4
-29 -9z"/>
<path d="M1540 1930 l0 -150 30 0 30 0 0 65 0 65 55 0 54 0 3 -62 c3 -60 4
-63 31 -66 l27 -3 0 150 0 151 -30 0 -30 0 0 -61 0 -60 -52 3 -53 3 -3 58 c-3
56 -4 57 -32 57 l-30 0 0 -150z"/>
<path d="M214 1487 c-2 -7 -3 -76 -2 -152 l3 -140 50 -3 c106 -7 165 26 165
91 0 56 -28 81 -96 87 l-59 5 -3 38 -3 37 70 0 c69 0 71 1 71 25 0 25 0 25
-95 25 -69 0 -97 -4 -101 -13z m150 -189 c18 -29 -4 -53 -53 -56 l-41 -3 0 41
0 41 41 -3 c27 -2 46 -9 53 -20z"/>
<path d="M485 1488 c-3 -8 -4 -77 -3 -153 l3 -140 50 -3 c101 -7 160 30 160
99 0 55 -30 82 -98 89 l-52 5 -5 55 c-4 48 -8 55 -28 58 -12 2 -24 -3 -27 -10z
m126 -158 c22 -12 26 -59 7 -78 -7 -7 -27 -12 -45 -12 -33 0 -33 0 -33 50 0
47 2 50 26 50 14 0 34 -5 45 -10z"/>
<path d="M734 1487 c-2 -7 -3 -76 -2 -152 3 -139 3 -140 27 -143 13 -2 28 2
32 10 10 15 12 258 3 282 -7 19 -53 21 -60 3z"/>
<path d="M837 1493 c-13 -12 -7 -41 9 -47 9 -3 29 -6 45 -6 l28 0 3 -122 3
-123 25 0 25 0 3 122 3 122 37 3 c32 3 37 7 40 31 l3 27 -109 0 c-60 0 -112
-3 -115 -7z"/>
<path d="M1105 1488 c-3 -8 -4 -77 -3 -153 l3 -140 50 -3 c110 -7 165 25 165
96 0 61 -26 86 -96 92 l-59 5 -5 55 c-4 48 -8 55 -28 58 -12 2 -24 -3 -27 -10z
m139 -164 c19 -18 21 -55 4 -72 -7 -7 -29 -12 -50 -12 l-38 0 0 50 0 50 34 0
c19 0 42 -7 50 -16z"/>
<path d="M1526 1478 c-2 -13 -11 -66 -20 -118 -13 -80 -19 -98 -41 -115 -33
-27 -33 -55 1 -55 59 0 83 39 104 173 l13 77 33 0 34 0 0 -126 0 -125 28 3 27
3 0 150 0 150 -87 3 c-84 3 -88 2 -92 -20z"/>
<path d="M1824 1481 c-82 -50 -84 -235 -3 -276 34 -18 118 -20 154 -3 81 37
97 206 25 271 -26 23 -39 27 -88 27 -38 0 -67 -6 -88 -19z m122 -39 c39 -26
47 -133 13 -176 -22 -28 -64 -35 -99 -16 -43 23 -47 133 -7 178 20 22 70 30
93 14z"/>
<path d="M2105 1487 c-3 -7 -4 -76 -3 -152 l3 -140 25 0 25 0 3 122 3 122 52
3 c48 3 52 5 52 28 0 24 -2 25 -78 28 -57 2 -79 -1 -82 -11z"/>
<path d="M2335 1478 c-36 -28 -55 -76 -55 -138 0 -105 43 -150 143 -150 92 0
137 53 137 162 0 72 -24 122 -66 138 -47 18 -129 12 -159 -12z m145 -55 c31
-39 25 -137 -9 -164 -30 -24 -83 -24 -104 -1 -36 39 -33 136 4 173 29 29 83
25 109 -8z"/>
</g>
</svg>
